<?xml version="1.0" encoding="utf-8"?>
<!-- Generator: Adobe Illustrator 23.0.6, SVG Export Plug-In . SVG Version: 6.00 Build 0)  -->
<svg version="1.1" id="Layer_1" xmlns="http://www.w3.org/2000/svg" xmlns:xlink="http://www.w3.org/1999/xlink" x="0px" y="0px"
	 viewBox="0 0 128 128" style="enable-background:new 0 0 128 128;" xml:space="preserve">
<style type="text/css">
	.st0{fill:#E54A91;}
	.st1{fill:#FFFFFF;}
</style>
<path class="st0" d="M116,128H12c-6.6,0-12-5.4-12-12V12C0,5.4,5.4,0,12,0h104c6.6,0,12,5.4,12,12v104C128,122.6,122.6,128,116,128z
	"/>
<path class="st1" d="M103.2,18h7.2l-23,92h-7L103.2,18z"/>
<g>
	<path class="st1" d="M52.8,100H22V28h29.5c14.9,0,23.2,7.8,23.2,18.6c0,8.8-5.2,14.2-12.2,16.5c8.1,1.4,13.8,9,13.8,17.4
		C76.3,92,67.6,100,52.8,100z M49,40H36v18h13c6.8,0,11.1-3.4,11.1-9.3C60.1,43,55.8,40,49,40z M50,69H36v19h15
		c7,0,10.8-3.2,10.8-9.2C61.8,72.6,57,69,50,69z"/>
</g>
</svg>
